<svg width="44" height="44" viewBox="0 0 44 44" fill="none" xmlns="http://www.w3.org/2000/svg">
    <path d="M30.322 15.017 23.363 22l6.959 6.983a.932.932 0 0 1 0 1.339.932.932 0 0 1-1.34 0L22 23.363l-6.983 6.959a.932.932 0 0 1-1.339 0 .932.932 0 0 1 0-1.34L20.637 22l-6.959-6.983a.956.956 0 0 1 1.34-1.339L22 20.637l6.983-6.959a.956.956 0 1 1 1.339 1.34zM44 2.87v38.26A2.87 2.87 0 0 1 41.13 44H2.87A2.87 2.87 0 0 1 0 41.13V2.87A2.87 2.87 0 0 1 2.87 0h38.26A2.87 2.87 0 0 1 44 2.87zm-1.913 0a.957.957 0 0 0-.957-.957H2.87a.957.957 0 0 0-.957.957v38.26a.957.957 0 0 0 .957.957h38.26a.957.957 0 0 0 .957-.957V2.87z" fill="#000"/>
</svg>
